<svg width="50.000000" height="50.000000" viewBox="0 0 50 50" fill="none" xmlns="http://www.w3.org/2000/svg"
     xmlns:xlink="http://www.w3.org/1999/xlink">
    <defs>
        <clipPath id="clip3_2">
            <rect id="svg" width="50.000000" height="50.000000" fill="white" fill-opacity="0"/>
        </clipPath>
    </defs>
    <g clip-path="url(#clip3_2)">
        <path id="矢量 1"
              d="M19.17 18.26L19.17 13.55C19.17 13.15 19.32 12.85 19.67 12.66L29.13 7.21C30.42 6.46 31.96 6.12 33.54 6.12C39.49 6.12 43.26 10.72 43.26 15.63C43.26 15.98 43.26 16.37 43.21 16.77L33.39 11.02C32.8 10.67 32.2 10.67 31.61 11.02L19.17 18.26ZM41.27 36.59L41.27 25.34C41.27 24.65 40.98 24.15 40.38 23.81L27.94 16.57L32.01 14.24C32.35 14.04 32.65 14.04 33 14.24L42.46 19.69C45.19 21.28 47.02 24.65 47.02 27.92C47.02 31.68 44.79 35.15 41.27 36.59ZM16.25 26.68L12.19 24.3C11.84 24.1 11.69 23.81 11.69 23.41L11.69 12.51C11.69 7.21 15.75 3.19 21.25 3.19C23.34 3.19 25.27 3.89 26.9 5.12L17.14 10.77C16.55 11.12 16.25 11.62 16.25 12.31L16.25 26.68ZM25 31.73L19.17 28.46L19.17 21.53L25 18.26L30.82 21.53L30.82 28.46L25 31.73ZM28.74 46.8C26.65 46.8 24.72 46.11 23.09 44.87L32.85 39.22C33.44 38.87 33.74 38.37 33.74 37.68L33.74 23.31L37.85 25.69C38.2 25.89 38.35 26.18 38.35 26.58L38.35 37.48C38.35 42.78 34.24 46.8 28.74 46.8ZM16.99 35.75L7.53 30.3C4.8 28.71 2.97 25.34 2.97 22.07C2.97 18.26 5.25 14.84 8.77 13.4L8.77 24.7C8.77 25.39 9.06 25.89 9.66 26.23L22.05 33.42L17.98 35.75C17.64 35.95 17.34 35.95 16.99 35.75ZM16.45 43.88C10.85 43.88 6.73 39.66 6.73 34.46C6.73 34.06 6.78 33.67 6.83 33.27L16.6 38.92C17.19 39.27 17.78 39.27 18.38 38.92L30.82 31.73L30.82 36.44C30.82 36.84 30.67 37.14 30.32 37.33L20.86 42.79C19.57 43.53 18.03 43.88 16.45 43.88ZM28.74 49.77C34.73 49.77 39.74 45.51 40.88 39.86C46.43 38.42 50 33.22 50 27.92C50 24.45 48.51 21.08 45.83 18.65C46.08 17.61 46.23 16.57 46.23 15.53C46.23 8.44 40.48 3.14 33.84 3.14C32.5 3.14 31.21 3.34 29.93 3.79C27.7 1.61 24.62 0.22 21.25 0.22C15.26 0.22 10.25 4.48 9.11 10.13C3.56 11.57 0 16.77 0 22.07C0 25.54 1.48 28.91 4.16 31.34C3.91 32.38 3.76 33.42 3.76 34.46C3.76 41.55 9.51 46.85 16.15 46.85C17.49 46.85 18.78 46.65 20.06 46.2C22.29 48.38 25.37 49.77 28.74 49.77Z"
              fill="#000000" fill-opacity="1.000000" fill-rule="nonzero"/>
    </g>
</svg>
