<?xml version="1.0" standalone="no"?><!DOCTYPE svg PUBLIC "-//W3C//DTD SVG 1.1//EN" "http://www.w3.org/Graphics/SVG/1.1/DTD/svg11.dtd"><svg t="1741872393564" class="icon" viewBox="0 0 1257 1024" version="1.1" xmlns="http://www.w3.org/2000/svg" p-id="12633" xmlns:xlink="http://www.w3.org/1999/xlink" width="245.5078125" height="200"><path d="M1257.118119 656.743422c0-178.086957-178.086957-322.925919-377.957081-322.925919-211.717111 0-378.339242 145.030043-378.339243 322.925919S667.443926 979.478261 878.969957 979.478261a562.922933 562.922933 0 0 0 133.756298-22.35641l122.100392 66.878149-33.630155-111.208808c89.425639-67.069229 155.921627-155.730547 155.921627-256.04777z m-494.898302-49.48983a50.445232 50.445232 0 1 1 50.254152-50.445232 50.445232 50.445232 0 0 1-50.254152 50.445232z m244.774025 0a50.445232 50.445232 0 1 1 50.445232-50.445232 50.445232 50.445232 0 0 1-50.445232 50.063071z" fill="#00C800" p-id="12634"></path><path d="M445.026311 0C200.443366 0 0 166.813211 0 378.339242c0 122.291472 66.687068 222.608696 178.086957 300.56951l-44.330659 133.756297 155.539466-77.960813a769.098712 769.098712 0 0 0 155.921627 22.35641c13.948871 0 27.706662 0 41.464453-1.910805a333.435342 333.435342 0 0 1-13.757791-93.247247c0-194.328793 167.004292-352.161224 378.339242-352.161224a350.25042 350.25042 0 0 1 42.802016 2.675126C855.467065 133.756298 663.813398 0 445.026311 0z m-149.615973 305.728681a60.572495 60.572495 0 1 1 60.572495-60.572495A60.572495 60.572495 0 0 1 295.410338 305.728681z m310.887852 0a60.572495 60.572495 0 1 1 60.381414-60.572495A60.572495 60.572495 0 0 1 606.29819 305.728681z" fill="#00C800" p-id="12635"></path></svg>